<svg xmlns="http://www.w3.org/2000/svg" viewBox="0 0 100 320" role="img" aria-label="Everyday hydration mix stick pack mockup">
  <rect x="8" y="10" width="84" height="300" rx="5" fill="#9AD3E0"/>
  <rect x="8" y="10" width="84" height="26" fill="#7DBFCF"/><g stroke="#fff" stroke-opacity=".28" stroke-width="1.2"><line x1="12" y1="12" x2="12" y2="34"/><line x1="17" y1="12" x2="17" y2="34"/><line x1="22" y1="12" x2="22" y2="34"/><line x1="27" y1="12" x2="27" y2="34"/><line x1="32" y1="12" x2="32" y2="34"/><line x1="37" y1="12" x2="37" y2="34"/><line x1="42" y1="12" x2="42" y2="34"/><line x1="47" y1="12" x2="47" y2="34"/><line x1="52" y1="12" x2="52" y2="34"/><line x1="57" y1="12" x2="57" y2="34"/><line x1="62" y1="12" x2="62" y2="34"/><line x1="67" y1="12" x2="67" y2="34"/><line x1="72" y1="12" x2="72" y2="34"/><line x1="77" y1="12" x2="77" y2="34"/><line x1="82" y1="12" x2="82" y2="34"/><line x1="87" y1="12" x2="87" y2="34"/></g>
  <rect x="8" y="284" width="84" height="26" fill="#7DBFCF"/><g stroke="#fff" stroke-opacity=".28" stroke-width="1.2"><line x1="12" y1="286" x2="12" y2="308"/><line x1="17" y1="286" x2="17" y2="308"/><line x1="22" y1="286" x2="22" y2="308"/><line x1="27" y1="286" x2="27" y2="308"/><line x1="32" y1="286" x2="32" y2="308"/><line x1="37" y1="286" x2="37" y2="308"/><line x1="42" y1="286" x2="42" y2="308"/><line x1="47" y1="286" x2="47" y2="308"/><line x1="52" y1="286" x2="52" y2="308"/><line x1="57" y1="286" x2="57" y2="308"/><line x1="62" y1="286" x2="62" y2="308"/><line x1="67" y1="286" x2="67" y2="308"/><line x1="72" y1="286" x2="72" y2="308"/><line x1="77" y1="286" x2="77" y2="308"/><line x1="82" y1="286" x2="82" y2="308"/><line x1="87" y1="286" x2="87" y2="308"/></g>
  <path d="M8 44l6 4-6 4zM92 44l-6 4 6 4z" fill="#7DBFCF"/>
  <rect x="8" y="36" width="22" height="248" fill="#fff" opacity=".13"/>
  <text x="50" y="68" text-anchor="middle" font-family="Inter, 'Segoe UI', Arial, sans-serif" font-weight="700" font-size="15" fill="#12414D">everyday</text>
  <text transform="translate(57 150) rotate(-90)" text-anchor="middle" font-family="Inter, 'Segoe UI', Arial, sans-serif" font-weight="700" font-size="19" letter-spacing="1.5" fill="#12414D">HYDRATION</text>
  <circle cx="50" cy="256" r="16" fill="#fff"/><g transform="translate(32.40 238.40) scale(1.467)" fill="none" stroke="#12414D" stroke-width="2.2" stroke-linecap="round" stroke-linejoin="round"><path d="M12 3c3.5 4.6 6 8 6 11a6 6 0 0 1-12 0c0-3 2.5-6.4 6-11z"/></g>
</svg>
